<svg id="visual" viewBox="0 0 200 1000" width="200" height="1000" xmlns="http://www.w3.org/2000/svg" xmlns:xlink="http://www.w3.org/1999/xlink" version="1.1"><rect x="0" y="0" width="200" height="1000" fill="#001122"></rect><path d="M9 0L8 20.8C7 41.7 5 83.3 13.3 125C21.7 166.7 40.3 208.3 41.8 250C43.3 291.7 27.7 333.3 24.5 375C21.3 416.7 30.7 458.3 36.8 500C43 541.7 46 583.3 45 625C44 666.7 39 708.3 33 750C27 791.7 20 833.3 16.3 875C12.7 916.7 12.3 958.3 12.2 979.2L12 1000L0 1000L0 979.2C0 958.3 0 916.7 0 875C0 833.3 0 791.7 0 750C0 708.3 0 666.7 0 625C0 583.3 0 541.7 0 500C0 458.3 0 416.7 0 375C0 333.3 0 291.7 0 250C0 208.3 0 166.7 0 125C0 83.3 0 41.7 0 20.8L0 0Z" fill="#ecc600" stroke-linecap="round" stroke-linejoin="miter"></path></svg>